<?xml version="1.0" standalone="no"?>
<!DOCTYPE svg PUBLIC "-//W3C//DTD SVG 20010904//EN"
 "http://www.w3.org/TR/2001/REC-SVG-20010904/DTD/svg10.dtd">
<svg version="1.0" xmlns="http://www.w3.org/2000/svg"
 width="700.000000pt" height="700.000000pt" viewBox="0 0 700.000000 700.000000"
 preserveAspectRatio="xMidYMid meet">
<metadata>
Created by potrace 1.11, written by Peter Selinger 2001-2013
</metadata>
<g transform="translate(0.000000,700.000000) scale(0.100000,-0.100000)"
fill="#000000" stroke="none">
<path d="M2834 6331 c1 -579 -1 -658 -14 -648 -8 7 -157 155 -331 329 -260
260 -318 313 -321 295 -2 -12 -3 -311 -2 -665 l0 -643 330 -330 c181 -181 332
-329 336 -329 5 0 156 148 338 330 l330 330 330 -330 c182 -182 333 -330 338
-330 4 0 155 148 336 329 l330 330 0 665 c1 367 0 666 -1 666 -2 0 -151 -148
-332 -329 -269 -269 -330 -325 -333 -308 -1 12 -3 309 -2 660 0 350 -2 637 -5
637 -3 0 -153 -147 -333 -327 l-328 -328 -328 328 c-180 180 -330 327 -333
327 -3 0 -5 -297 -5 -659z"/>
<path d="M1780 6115 l-215 -215 -206 206 c-114 113 -209 202 -211 198 -3 -5
-5 -109 -4 -232 l1 -222 -232 0 c-128 0 -233 -2 -233 -5 0 -3 93 -98 206 -211
l207 -206 -214 -214 -214 -214 668 0 667 0 0 665 c0 366 -1 665 -3 665 -1 0
-99 -97 -217 -215z"/>
<path d="M5000 5667 l0 -667 667 0 668 0 -218 218 -217 217 205 205 c113 113
205 208 205 211 0 4 -98 7 -217 7 -120 0 -224 1 -230 1 -10 1 -13 54 -13 231
0 127 -2 230 -5 230 -3 0 -98 -93 -211 -206 l-206 -207 -214 214 -214 214 0
-668z"/>
<path d="M683 4820 c7 -8 155 -157 330 -332 174 -175 317 -319 317 -321 0 -1
-297 -2 -660 -1 -363 0 -660 -2 -660 -5 0 -3 147 -153 327 -333 l328 -328
-328 -328 c-180 -180 -327 -330 -327 -333 0 -3 291 -5 648 -4 356 0 652 -1
659 -3 6 -2 -137 -152 -318 -333 -181 -181 -329 -330 -329 -332 0 -1 300 -2
666 -1 l665 0 330 330 c181 181 329 332 329 336 0 5 -149 157 -330 338 l-330
330 330 330 c181 181 330 333 330 338 0 4 -148 155 -330 337 l-329 329 -665 1
c-581 0 -663 -2 -653 -15z"/>
<path d="M5007 4831 c-15 -4 -667 -653 -667 -663 0 -5 149 -157 330 -338 l330
-330 -330 -330 c-181 -182 -330 -333 -330 -338 0 -4 150 -156 333 -338 l332
-330 645 2 c355 1 653 2 663 3 11 1 -104 122 -313 331 -181 182 -330 331 -330
333 0 1 297 2 660 1 363 0 660 2 660 5 0 3 -147 153 -327 333 l-328 328 328
328 c180 180 327 330 327 333 0 3 -291 5 -647 5 -357 -1 -653 0 -660 2 -6 2
137 152 318 333 181 181 328 329 327 330 -9 3 -1310 3 -1321 0z"/>
<path d="M2495 2330 l-329 -329 0 -665 c-1 -583 1 -663 14 -653 8 7 157 155
332 329 174 175 319 314 320 310 2 -4 3 -301 3 -659 -1 -359 2 -653 6 -653 4
0 9 3 11 8 2 4 149 151 326 327 l322 320 328 -328 c180 -180 330 -327 333
-327 3 0 5 297 5 659 -1 577 1 658 14 648 8 -7 157 -155 332 -329 175 -175
319 -318 321 -318 1 0 2 300 1 666 l-1 666 -329 329 c-181 181 -332 329 -336
329 -5 0 -156 -148 -338 -330 l-330 -330 -330 330 c-181 182 -333 330 -338
330 -4 0 -155 -148 -337 -330z"/>
<path d="M883 1782 l217 -217 -205 -205 c-113 -113 -205 -208 -205 -211 0 -4
89 -7 198 -7 108 0 212 -1 230 -1 l32 -1 0 -230 c0 -126 2 -230 5 -230 3 0 98
93 211 206 l206 207 214 -214 214 -214 0 668 0 667 -667 0 -668 0 218 -218z"/>
<path d="M5000 1333 l0 -668 218 218 217 217 211 -211 211 -211 1 219 c0 120
1 226 1 236 1 16 19 17 231 17 127 0 230 2 230 5 0 3 -93 98 -206 211 l-207
206 214 214 214 214 -668 0 -667 0 0 -667z"/>
</g>
</svg>
